<?xml version="1.0" encoding="UTF-8"?>
<!DOCTYPE svg PUBLIC "-//W3C//DTD SVG 1.1//EN" "http://www.w3.org/Graphics/SVG/1.1/DTD/svg11.dtd">
<!-- Creator: CorelDRAW 2017 -->
<svg xmlns="http://www.w3.org/2000/svg" xml:space="preserve" width="512px" height="512px" version="1.1" style="shape-rendering:geometricPrecision; text-rendering:geometricPrecision; image-rendering:optimizeQuality; fill-rule:evenodd; clip-rule:evenodd"
viewBox="0 0 512 512"
 xmlns:xlink="http://www.w3.org/1999/xlink">
 <defs>
  <style type="text/css">
   <![CDATA[
    .fil0 {fill:#434242}
    .fil1 {fill:#FF5533}
   ]]>
  </style>
 </defs>
 <g id="Слой_x0020_1">
  <metadata id="CorelCorpID_0Corel-Layer"/>
  <path class="fil0" d="M186.6 88.44c0,-18.46 -21.7,-30.3 -36.4,-16.45 -9.03,8.52 -8.97,23.44 -0.83,32.07 14.18,15.01 37.23,3.08 37.23,-15.62zm26.6 5.82c64.49,38.18 128.45,77.15 192.7,115.71 12.01,7.24 59.91,34.92 65,38.08 0,-14.18 -10.45,-41.78 -16.9,-53.76 -5.75,-10.68 -21.08,-32.7 -30.73,-40.76 -21.85,-18.26 -40.35,-30.78 -69.36,-37.04 -41.35,-8.92 -61.24,0.7 -65.58,-0.15 -1.3,-0.25 -7.12,-3.92 -8.46,-4.79l-27.98 -16.9c-2.46,-1.69 -2.16,-0.81 -2.94,-3.71 18.37,-8.79 59.15,-23.82 114.89,-10.85 20.61,5.4 39.78,12.58 64.2,30.67 57.9,41.84 93.54,120.36 76.2,204.21 -3.88,-1.98 -306,-182.92 -309.88,-185.26 -3.64,-0.93 -4.92,3.01 -12.85,6.01 -20.64,7.83 -42.71,0.5 -55.72,-17.22 -18.6,-25.35 -9.3,-61.73 17.63,-75.73 22.87,-11.89 51.69,-1.73 62.87,19.34 6.33,11.95 6.91,18.62 6.91,32.15z"/>
  <path class="fil1" d="M140.11 235.86c0,-5.92 -3.09,-12.33 -6.04,-15.57 -12.33,-13.59 -37.19,-5.82 -37.19,15.57 0,29.46 43.23,29.58 43.23,0zm26.6 3.33c0,3.63 2.31,4.31 7.75,7.2 89.86,53.23 187.12,112.54 276.7,166.46 -120.33,115.88 -297.42,35.72 -314.46,-118.19 4.59,0.39 34,18.92 40.15,22.49 5.61,3.26 3.28,1.11 7.41,12.55 25.7,71.25 99.95,111.73 173.44,96.32 6.86,-1.76 15.31,-3.63 24.3,-7.28 -67.11,-41.03 -142.44,-86.88 -210.04,-127.45 -28.55,-17.02 -21.2,-15.88 -32.12,-9.98 -23.33,12.63 -52.83,1.46 -64.31,-21.6 -8.77,-17.63 -6.76,-38.61 4.72,-54.61l3.41 -4.07c26.97,-27.84 68.16,-15.95 80.45,17.48 3.45,9.37 2.6,12.95 2.6,20.68z"/>
  <path class="fil0" d="M51.85 131.43c16.43,0 29.82,-20.94 15.57,-38.01 -5.85,-7.01 -16.63,-8.78 -24.97,-4.64 -16.26,8.08 -15.74,32.07 0.2,40.21 1.85,0.95 6.42,2.44 9.2,2.44zm48.22 -17.45c4.01,2.68 8.48,4.83 12.47,7.48 33.9,20.96 360.03,217.1 380.75,229.24 -4.54,11.89 -12.06,24.62 -19.15,35.21 -135.56,-79.08 -255.04,-153.43 -388.67,-234.09 -6.58,-3.87 -4.53,-0.91 -13.93,3.46 -19.17,8.89 -40.02,3.29 -52.98,-9.67 -19.51,-19.52 -20.31,-52.6 -0.58,-72.16 33.18,-32.9 78.15,-7.49 82.1,28.88 0.7,6.45 0.49,5.59 -0.01,11.65z"/>
 </g>
</svg>
