<?xml version="1.0" encoding="UTF-8"?>
<!DOCTYPE svg PUBLIC "-//W3C//DTD SVG 1.1//EN" "http://www.w3.org/Graphics/SVG/1.1/DTD/svg11.dtd">
<!-- Creator: CorelDRAW 2017 -->
<svg xmlns="http://www.w3.org/2000/svg" xml:space="preserve" width="512px" height="512px" version="1.1" style="shape-rendering:geometricPrecision; text-rendering:geometricPrecision; image-rendering:optimizeQuality; fill-rule:evenodd; clip-rule:evenodd"
viewBox="0 0 512 512"
 xmlns:xlink="http://www.w3.org/1999/xlink">
 <defs>
  <style type="text/css">
   <![CDATA[
    .fil0 {fill:#434242}
    .fil1 {fill:#FF5533}
   ]]>
  </style>
 </defs>
 <g id="Слой_x0020_1">
  <metadata id="CorelCorpID_0Corel-Layer"/>
  <g id="_2214608199264">
   <path class="fil0" d="M312.65 100.3c0,-17.14 20.13,-28.13 33.77,-15.27 8.39,7.91 8.33,21.75 0.77,29.76 -13.15,13.93 -34.54,2.86 -34.54,-14.49zm-24.69 5.39l-29.55 17.5c-10.25,6.12 -19.54,12 -29.69,18.13l-119.56 71.73c-10.14,6.12 -19.48,12.13 -29.59,18.23 -4.81,2.9 -27,16.24 -30.72,17.11 0,-13.15 9.7,-38.76 15.68,-49.88 5.33,-9.91 19.57,-30.34 28.52,-37.82 20.27,-16.95 37.43,-28.57 64.36,-34.37 38.36,-8.27 56.82,0.65 60.84,-0.14 1.22,-0.23 6.61,-3.64 7.86,-4.44l25.96 -15.68c2.28,-1.57 2.01,-0.75 2.73,-3.45 -2.39,-0.56 -4.57,-1.84 -7.16,-2.87 -2.53,-1.01 -4.72,-1.84 -7.28,-2.74 -35.56,-12.51 -73.89,-11.61 -109.47,0.49 -5.73,1.95 -9.93,4.1 -15.27,6.33 -2.85,1.19 -4.26,1.97 -6.71,3.31 -7.63,4.19 -12.77,6.94 -20.07,12.33 -29.58,21.82 -51.17,49.17 -64,84.87 -12.07,33.57 -14.22,70.79 -6.07,105.77 2.54,-0.22 3.71,-1.33 5.84,-2.65 2.13,-1.31 3.9,-2.36 5.77,-3.48 3.91,-2.34 7.76,-4.66 11.57,-6.94l263.5 -158.44c3.38,-0.86 4.56,2.79 11.92,5.58 19.15,7.25 39.63,0.46 51.7,-15.99 17.27,-23.51 8.63,-57.27 -16.36,-70.27 -21.21,-11.03 -47.95,-1.59 -58.33,17.95 -1.6,3.03 -2.69,5.05 -3.84,8.51 -2.54,7.67 -2.58,11.51 -2.58,21.32z"/>
   <path class="fil1" d="M358.15 242.99c0,-5.5 2.87,-11.44 5.6,-14.45 11.44,-12.61 34.51,-5.4 34.51,14.45 0,27.34 -40.11,27.44 -40.11,0zm-24.68 3.09c0,3.37 -2.14,4 -7.2,6.68 -14.3,7.6 -43.95,26.27 -58.4,34.92 -2.63,1.58 -5.71,3.1 -8.23,4.89 -14.5,10.34 -43.7,25.07 -58.17,35.16 -5.3,3.69 -10.48,6.64 -16.33,9.9l-117 70.42c8.34,12.46 39.85,31.67 55.41,37.92 92.04,36.99 189.09,-11.63 222.82,-96.75 3.23,-8.16 5.58,-15.07 7.77,-23.85 1.77,-7.06 4.79,-18.78 4.79,-26.84 -4.27,0.35 -29.16,16.57 -34.87,19.89 -5.21,3.02 -3.05,1.03 -6.87,11.64 -3.32,9.21 -7.24,16.18 -11.75,24.51 -2.72,5.04 -11.77,17.39 -15.74,21.29 -3.52,3.46 -4.69,6.01 -8.68,9.05 -2.13,1.63 -2.83,2.6 -4.81,4.45 -9.71,9.04 -21.49,15.66 -33.5,21.27l-20.3 7.46c-22.45,5.91 -43.38,6.13 -66.16,1.35 -3.45,-0.72 -7.71,-1.96 -11.47,-3.18 -3.01,-0.98 -8.51,-3.36 -11.08,-3.58 1.56,-2.13 25.01,-16.15 29.16,-18.65l30.67 -17.93c10.78,-6.49 34.34,-22.09 44.3,-27.44 2.54,-1.37 5.24,-2.9 7.86,-4.48l82.91 -49.75c26.49,-15.81 19.67,-14.75 29.8,-9.26 21.65,11.71 49.02,1.35 59.67,-20.06 8.14,-16.35 6.28,-35.82 -4.37,-50.67l-3.17 -3.77c-25.03,-25.83 -63.25,-14.8 -74.65,16.22 -3.2,8.7 -2.41,12.02 -2.41,19.19z"/>
   <path class="fil0" d="M453.8 131.92c-15.24,0 -27.67,-19.43 -14.45,-35.27 5.43,-6.51 15.43,-8.15 23.17,-4.31 15.09,7.5 14.6,29.75 -0.19,37.32 -1.71,0.87 -5.95,2.26 -8.53,2.26zm-44.74 -16.2c-3.72,2.5 -7.87,4.48 -11.57,6.94 -10.88,7.24 -34.3,20.62 -47.2,28.4l-297.91 179.53c-2.28,1.37 -3.72,2.28 -5.84,3.41l-18.51 10.8c2.43,10.43 16.17,29.41 16.97,32.4 4.7,-0.39 45.88,-26.51 50.76,-29.46 17.05,-10.29 33.43,-20.08 50.61,-30.37l100.57 -60.64c16.87,-10.19 33.26,-19.9 50.13,-30.08 8.56,-5.17 16.21,-10.12 25.07,-15.05l37.89 -23.04c4.5,-2.71 8.06,-4.85 12.54,-7.52l50.03 -30.2c6.11,-3.6 4.21,-0.85 12.93,3.2 17.79,8.26 37.13,3.06 49.16,-8.97 18.11,-18.11 18.84,-48.81 0.54,-66.95 -30.79,-30.53 -72.51,-6.95 -76.18,26.79 -0.65,5.99 -0.46,5.2 0.01,10.81z"/>
  </g>
 </g>
</svg>
