<?xml version="1.0" standalone="no"?>
<!DOCTYPE svg PUBLIC "-//W3C//DTD SVG 20010904//EN"
 "http://www.w3.org/TR/2001/REC-SVG-20010904/DTD/svg10.dtd">
<svg version="1.0" xmlns="http://www.w3.org/2000/svg"
 width="700.000000pt" height="700.000000pt" viewBox="0 0 700.000000 700.000000"
 preserveAspectRatio="xMidYMid meet">
<metadata>
Created by potrace 1.11, written by Peter Selinger 2001-2013
</metadata>
<g transform="translate(0.000000,700.000000) scale(0.100000,-0.100000)"
fill="#000000" stroke="none">
<path d="M2162 6478 c-242 -36 -451 -214 -536 -458 -23 -69 -28 -96 -33 -210
-9 -199 56 -366 197 -508 135 -136 302 -203 490 -196 106 4 240 45 300 92 54
42 56 41 275 -90 113 -68 217 -130 232 -139 16 -9 350 -209 743 -445 393 -236
724 -434 735 -440 11 -6 99 -58 195 -116 133 -80 1082 -647 1296 -774 62 -37
209 -125 224 -134 58 -36 464 -278 500 -298 25 -14 57 -34 72 -44 35 -25 44
-19 52 35 9 62 16 100 21 117 2 8 7 51 11 95 3 44 8 89 10 100 5 28 5 349 0
415 -8 98 -26 233 -42 313 -8 42 -17 87 -20 100 -23 122 -91 331 -156 482
-228 524 -586 941 -1068 1241 -283 177 -614 293 -970 339 -189 25 -476 23
-640 -5 -30 -5 -70 -12 -87 -15 -213 -35 -553 -154 -553 -193 0 -11 78 -64
239 -160 319 -193 285 -179 390 -159 136 26 196 32 346 32 130 -1 234 -7 295
-20 14 -3 39 -8 55 -10 17 -3 57 -10 90 -16 192 -34 461 -147 656 -276 113
-75 302 -224 358 -283 121 -126 311 -395 387 -549 101 -207 191 -484 208 -644
l5 -48 -47 27 c-26 15 -148 87 -272 159 -124 73 -241 142 -260 152 -52 30
-487 288 -628 373 -118 72 -139 85 -209 126 -17 10 -413 249 -880 529 -466
281 -857 515 -868 521 -11 6 -72 42 -135 81 -64 38 -120 72 -125 74 -6 2 -31
17 -56 33 l-46 29 0 67 c0 133 -24 230 -86 354 -117 234 -404 382 -665 344z
m153 -389 c88 -21 165 -84 207 -168 32 -65 32 -198 1 -257 -47 -89 -109 -141
-199 -166 -134 -38 -262 22 -332 157 -36 69 -37 197 -3 266 64 133 193 199
326 168z"/>
<path d="M688 6205 c-2 -2 -27 -6 -55 -9 -196 -22 -414 -181 -508 -371 -134
-269 -83 -597 125 -805 85 -85 155 -130 262 -167 60 -21 92 -26 183 -27 156
-1 209 12 342 85 l75 42 39 -21 c21 -12 196 -117 389 -234 193 -117 414 -252
493 -299 78 -47 477 -290 887 -539 762 -463 989 -601 1540 -933 598 -360 895
-538 1031 -617 15 -8 106 -62 203 -120 97 -58 209 -124 249 -147 39 -22 77
-46 84 -52 7 -6 15 -11 18 -11 3 0 101 -56 216 -125 116 -69 214 -125 217
-125 23 0 233 374 256 456 6 19 -29 43 -315 215 -177 107 -338 203 -358 214
-20 12 -54 32 -76 45 -74 45 -378 228 -407 245 -9 6 -65 39 -125 75 -59 36
-115 70 -125 75 -9 6 -54 33 -100 60 -45 28 -90 55 -100 60 -64 37 -1931 1163
-3098 1868 -401 242 -424 256 -550 331 l-105 62 -1 58 c-3 96 -12 157 -35 231
-77 250 -301 444 -544 471 -27 3 -62 7 -77 9 -15 1 -28 2 -30 0z m150 -421
c121 -59 191 -218 154 -349 -38 -137 -151 -229 -279 -228 -128 2 -241 87 -279
210 -80 257 167 481 404 367z"/>
<path d="M1545 4458 c-142 -19 -270 -83 -376 -188 -85 -84 -138 -170 -177
-288 -22 -67 -26 -95 -26 -212 0 -136 3 -156 47 -270 59 -156 180 -281 341
-355 88 -40 152 -56 250 -60 106 -5 195 16 312 75 117 58 104 60 242 -24 45
-28 95 -58 110 -67 15 -9 151 -92 302 -183 277 -168 787 -477 838 -507 103
-61 1373 -833 1422 -864 92 -60 203 -125 211 -125 5 0 9 -4 9 -10 0 -5 4 -10
9 -10 5 0 43 -21 85 -47 l77 -47 -33 -13 c-70 -30 -292 -89 -368 -98 -30 -4
-58 -9 -62 -11 -28 -18 -377 -24 -518 -10 -270 26 -619 145 -859 293 -254 156
-498 395 -653 638 -92 144 -179 326 -230 480 -11 33 -25 66 -31 73 -14 18
-410 255 -510 305 -43 22 -80 38 -83 35 -13 -13 45 -313 91 -475 50 -171 79
-247 166 -428 93 -194 189 -343 356 -555 47 -59 244 -255 321 -319 408 -338
894 -540 1392 -578 146 -12 483 -4 508 11 4 2 32 7 62 10 114 13 312 67 480
129 254 94 597 303 806 491 21 19 54 49 73 65 23 21 31 35 25 41 -9 9 -355
221 -440 270 -17 10 -118 71 -225 135 -107 65 -206 125 -221 134 -15 9 -213
128 -440 266 -393 237 -481 290 -566 343 -20 12 -46 27 -57 32 -11 6 -49 28
-85 51 -36 22 -328 199 -650 391 -322 193 -601 361 -620 373 -39 24 -229 137
-245 145 -68 34 -307 185 -314 199 -6 10 -11 56 -12 102 -4 174 -70 332 -192
459 -110 114 -253 186 -396 196 -36 3 -70 7 -76 8 -5 1 -37 -1 -70 -6z m195
-406 c84 -38 141 -111 163 -209 47 -206 -93 -378 -299 -367 -127 7 -225 80
-262 194 -40 122 2 275 95 346 85 65 208 80 303 36z"/>
</g>
</svg>
