<?xml version="1.0" encoding="UTF-8"?> <!-- Creator: CorelDRAW 2017 --> <svg xmlns="http://www.w3.org/2000/svg" xmlns:xlink="http://www.w3.org/1999/xlink" xml:space="preserve" width="120mm" height="50mm" style="shape-rendering:geometricPrecision; text-rendering:geometricPrecision; image-rendering:optimizeQuality; fill-rule:evenodd; clip-rule:evenodd" viewBox="0 0 12000 5000"> <defs> <style type="text/css"> <![CDATA[ .fil0 {fill:none} .fil2 {fill:#434242} .fil1 {fill:#ff5533} ]]> </style> </defs> <g> <path class="fil1" d="M6629.36 1142.33l27.95 -16.14c17.79,-10.27 19.69,-10.89 19.69,-42.15l0 -50.08c-17.56,-15.91 -28.59,-38.9 -28.59,-64.46 0,-48.02 38.94,-86.96 86.96,-86.96 48.03,0 86.96,38.94 86.96,86.96 0,25.56 -11.03,48.55 -28.58,64.46l0 114.41 -0.14 0c-0.02,20.08 -10.43,39.61 -29.05,50.39l-109.79 63.39c-56.6,32.68 -51.58,32.44 -51.58,80.68l0 71.31c0,63.31 -52.17,149.91 -148.03,209.51 -142.9,88.83 -288.37,73.51 -447.62,73.51l-1690.53 0c-30.89,0 -42.38,16.38 -42.38,46.4 0,31.45 23.65,46.71 51.88,46.63l1599.98 -3.62c343.28,-0.78 652.9,60.38 810.54,398.29 20.9,44.8 28.13,46.48 70.02,46.48l404.02 0c60.78,0 146.29,-92.75 242.78,-197.41 128.84,-139.74 274.58,-297.78 454.55,-331.46 15.85,-21.31 41.22,-35.12 69.82,-35.12 48.03,0 86.96,38.93 86.96,86.96 0,48.02 -38.93,86.96 -86.96,86.96 -22.15,0 -42.37,-8.29 -57.73,-21.93 -139.42,31.61 -267.52,170.52 -380.89,293.49 -115.01,124.73 -216.9,235.26 -328.53,235.26l-459.42 0c-26,0 -77.47,-1.67 -90.43,-39.45 -122.84,-356.88 -405.69,-406.52 -746.3,-405.75l-1580.96 3.58c-95.48,0.22 -176.08,-60.02 -176.08,-162.91 0,-94.16 63.7,-163.16 159.13,-163.16l1700.45 0c127.11,0 263.27,14.45 376.14,-55.72 60.11,-37.38 92.84,-82.07 92.84,-110.54 0,-21.14 -6.38,-27.6 -23.01,-37.2l-134.45 -77.62c-28.97,-16.65 -29.42,-41.16 -29.42,-68.95l0 -57.21c-17.55,-15.91 -28.58,-38.89 -28.58,-64.45 0,-48.03 38.93,-86.96 86.96,-86.96 48.02,0 86.96,38.93 86.96,86.96 0,25.56 -11.03,48.54 -28.59,64.45 0,37.3 -0.45,42.09 21.57,54.8l28.73 16.6c13.64,7.87 19.83,7.04 19.83,-16.68l0 -352.24c-17.56,-15.91 -28.58,-38.89 -28.58,-64.45 0,-48.02 38.93,-86.96 86.96,-86.96 48.02,0 86.95,38.94 86.95,86.96 0,25.56 -11.03,48.54 -28.58,64.45l0 246.85c0,22.59 8.05,30.3 26.17,19.84z"></path> <path class="fil2" d="M7102.82 1667.07c-0.26,-67.07 -53.82,-120.63 -120.88,-120.89 -48.09,0.19 -89.22,27.78 -108.76,68.1l-60.6 -34.99c-9.6,-5.54 -18.86,-10.93 -17.06,-29.8 6.92,-72.83 37.93,-134.3 123.95,-134.3l837.35 0c12.26,0 17.32,4.81 17.32,20.61 0,13.22 -2.01,16.39 -13.45,23.24 -177.2,106.11 -308.55,257.77 -415.92,381.79 -91.29,105.44 -162.86,188.11 -210.3,188.11l-212.73 0c-7.75,0 -14.26,-3.29 -21.14,-10.18l-344.76 -344.75c-22.79,-22.8 -59.76,-22.8 -82.55,0 -22.79,22.79 -22.79,59.75 0,82.55l372.04 372.03c14.1,14.1 28.57,17.1 47.05,17.1l242.09 0c100.32,0 187.33,-100.5 298.32,-228.7 109.77,-126.79 246.05,-284.2 426.86,-380.11 19.79,-10.42 31.1,-30.62 31.12,-51.54l0.12 0 0 -128.52c0,-32.24 -26.13,-58.38 -58.37,-58.38l-913.87 0c-194.35,0 -241.65,136.28 -241.65,303.39 0,20.45 10.51,38.44 26.43,48.87 57.56,37.78 216.46,137.02 278.51,137.25 67.06,-0.26 120.62,-53.82 120.88,-120.88zm-1810.37 1035.83l-186.2 0c-37.58,0 -39.93,-3.39 -77.31,33.99l-47.13 47.13c-18.07,18.07 -24.51,29.38 16.95,29.38l778.46 0c152,0 281.75,-104.08 329.62,-243.8 14.1,-41.17 3.5,-45.75 -34.48,-45.75l-1075.25 0c-34.88,0 -51.31,8.9 -88.66,46.25l-115.69 115.7c-17.07,17.07 -32.78,17.1 -53.74,17.1l-421.46 0c-208.7,0 -324.8,-229.47 -324.8,-413.19 0,-32.24 26.14,-58.37 58.37,-58.37l2070.57 0c223.04,0 274.89,108.92 324.21,292.99 15.68,58.52 22.21,61.82 72.57,61.82l800.47 0c213.87,0 356.75,-141.31 419.42,-334.49 15.9,-49.01 40.34,-111.5 -19.62,-28.77 -107.93,148.9 -214.15,300.73 -412.74,300.73l-761.19 0c-32.53,0 -52.46,-29.85 -60.45,-58.05 -49.26,-173.85 -141,-319.88 -342.08,-319.88l-2143.36 0c-84.15,0 -88.19,-104.85 -88.07,-170.8 0.54,-278.03 26.7,-676.45 395.77,-676.45l1652.09 0c145.01,0 241.28,19.72 346.82,125.27 22.79,22.79 22.79,59.76 0,82.55 -22.79,22.79 -59.76,22.79 -82.55,0 -82.66,-82.66 -150.91,-91.07 -264.27,-91.07l-1652.09 0c-267.1,0 -279.45,351.17 -279.45,585.74 0,23.47 7.6,28.01 23.02,28.01l2092.09 0c233.56,0 366.92,148.46 437.61,351.98 9.53,27.43 17.21,26.4 46.04,26.4l689.99 0c145.63,0 246.03,-166.73 322.68,-271.86 66.9,-91.75 122.64,-168.18 182.89,-176.62 36.04,-5 69.39,19.2 69.39,57.59 0,186.09 -54.91,364.08 -159.47,491.96 -97.25,118.94 -236.08,194.51 -412.47,194.51l-847.59 0c-83.59,0 -102.87,-15.92 -121.35,-86.15 -43.97,-167.19 -70.66,-268.66 -228.31,-268.66l-1976.36 0c-28.96,0 -30.17,5.83 -23.68,31.77 23.77,94.91 84.53,206.29 195.9,206.29l383.43 0c16.44,0 27.81,-1.49 46.13,-19.81l141.89 -141.9c10.58,-10.71 25.28,-17.35 41.53,-17.35l1209.63 0c42.36,0 101.51,7.18 101.51,58.38 -0.03,111.52 -51.12,238.58 -143.48,330.94 -79.03,79.03 -188.01,133.74 -320.98,133.74l-908.27 0c-38.11,0 -94.45,-2.19 -109.55,-32.02 -11.08,-21.9 -7.47,-49.33 10.83,-67.63l227.01 -227.01c10.58,-10.7 25.27,-17.34 41.52,-17.34l253.69 0c15.91,-17.56 38.9,-28.59 64.46,-28.59 48.02,0 86.96,38.94 86.96,86.96 0,48.03 -38.94,86.96 -86.96,86.96 -25.56,0 -48.55,-11.03 -64.46,-28.58zm1689.49 -1083.75c26.74,0.22 47.69,21.18 47.91,47.92 -0.22,26.73 -21.17,47.69 -47.91,47.91 -26.74,-0.22 -47.69,-21.18 -47.92,-47.91 0.23,-26.74 21.18,-47.7 47.92,-47.92z"></path> <path class="fil2" d="M3557 3706.67c0.06,-33.5 1.64,-63.77 43.81,-63.77l248.43 0c15.92,0 29.16,-4.55 29.16,-19.11 0,-10.31 0,-20.62 0,-30.92 0,-14.57 -13.24,-19.12 -29.16,-19.12l-750.56 0c-15.92,0 -29.16,4.55 -29.16,19.12 0,10.3 0,20.61 0,30.92 0,14.56 13.24,19.11 29.16,19.11l253.8 0c42.17,0 43.75,30.27 43.81,63.77 0,122.75 0,234.12 0,356.87 0,42.18 18.89,43.75 52.39,43.81 23.41,0 46.81,0 70.22,0 20.8,0 38.1,-5.95 38.1,-24.99 0,-129.02 0,-246.67 0,-375.69zm3747.16 400.68c-23.41,0 -46.82,0 -70.22,0 -20.8,0 -38.1,-5.95 -38.1,-24.99l0 -483.62c0,-19.04 17.3,-24.99 38.1,-24.99 156.84,0 313.68,0 470.52,0 175.69,0 294.86,27.45 294.86,210.97 -0.03,99.22 -0.2,198.73 -0.2,297.64 0,19.04 -17.29,24.99 -38.09,24.99 -23.41,0 -46.82,0 -70.23,0 -31.54,-0.06 -50.12,-1.46 -52.19,-36.82l0 -282.27c0,-180.96 -304.87,-145.36 -438.25,-145.36 -42.17,0 -43.75,18.89 -43.81,52.4 0,122.74 0,245.49 0,368.24 0,42.18 -18.89,43.75 -52.39,43.81zm-1264.39 -307.25c73.87,-40.72 82.97,-96.05 83.38,-165.03 0.08,-12.91 -0.04,-25.77 -0.14,-38.7 -1.39,-17.17 -18.09,-22.62 -38.01,-22.62l-29.38 0c-33.47,0 -53.7,-0.36 -56.97,33.25l0 59.87c0,112.42 -16.73,120.27 -211.15,120.27l-241.62 0c-17.73,-0.99 -23.32,-17.87 -23.32,-38.05l0 -150.36c0,-19.04 -17.3,-24.98 -38.1,-24.98 -21.78,0 -43.4,0 -65.17,0 -36.65,0 -57.45,-0.44 -57.45,43.81l0 445.98c0,39.3 16.42,43.34 45.78,43.76l79.86 0c19.42,-0.57 35.08,-6.83 35.08,-24.94 0,-57.86 0,-115.72 0,-173.58 0.05,-33.51 1.63,-52.4 43.81,-52.4 94.08,0 188.38,-0.04 282.54,-0.04 194.87,0 211.86,6.54 211.86,120.27l0 99.48c3.38,27.63 19.17,30.84 45,31.21l44.24 0c19.39,-0.59 34.99,-6.85 34.99,-24.94l0 -126.76c0,-96.49 -53.04,-141.25 -145.23,-155.5zm251.4 145.97c0,122.89 111.66,161.28 245.97,161.28l280.52 0c72.24,0 148.16,1.36 213.53,-34.31 34.47,-19.45 42.51,-35.28 12.66,-64.27 -44.78,-43.49 -48.22,13.9 -117.48,21.27 -74.91,7.96 -321.31,11.92 -399.16,-2.66 -56.81,-10.64 -75.33,-37.76 -75.33,-106.05l0 -165.35c0,-68.29 18.51,-95.41 75.33,-106.05 77.86,-14.59 324.25,-10.62 399.16,-2.66 69.26,7.37 72.7,64.76 117.48,21.27 29.86,-29 21.81,-41.03 -12.66,-60.48 -65.37,-35.67 -141.29,-34.31 -213.53,-34.31l-280.52 0c-134.31,0 -245.97,38.39 -245.97,161.28l0 211.04zm-4101.69 -45.14c0.02,-100.72 0.2,-201.77 0.2,-302.19 0,-19.04 17.29,-24.99 38.09,-24.99 23.41,0 46.82,0 70.23,0 31.54,0.06 50.12,1.46 52.19,36.82l0 282.27c0,180.96 304.87,145.36 438.25,145.36 42.17,0 43.75,-18.89 43.81,-52.4 0,-122.74 0,-245.49 0,-368.24 0,-42.18 18.89,-43.75 52.39,-43.81 23.41,0 46.82,0 70.22,0 20.81,0 38.1,5.95 38.1,24.99l0 483.62c0,19.04 -17.29,24.99 -38.1,24.99 -153.98,0 -307.96,0 -461.94,0 -156.11,0 -303.44,-16.43 -303.44,-206.42zm-251.4 -100.78c73.87,-40.72 83.17,-96.07 83.39,-165.03 0.03,-12.95 -0.05,-25.8 -0.15,-38.75 -1.39,-17.17 -18.09,-22.62 -38,-22.62 -11.48,0 -22.96,0 -34.44,0 -30.44,0.06 -48.82,1.37 -51.92,33.25l0 59.92c0,112.42 -16.73,120.27 -211.15,120.27l-239.96 0c-19.03,0 -24.98,-17.3 -24.98,-38.1l0 -150.35c0,-19.04 -17.3,-24.99 -38.1,-24.99 -23.41,0 -46.81,0 -70.22,0 -33.5,0.06 -52.39,1.63 -52.39,43.81l0 445.98c0,42.18 18.89,43.75 52.39,43.81 23.41,0 46.81,0 70.22,0 20.8,0 38.1,-5.95 38.1,-24.99 0,-57.87 0,-115.75 0,-173.63 0.06,-33.5 1.63,-52.39 43.81,-52.39 82.8,0 199.74,0 282.54,0 194.88,0 211.86,6.54 211.86,120.27l0 99.48c3.65,29.83 21.77,31.2 51.37,31.26 11.91,0 23.83,0.04 35.74,0 20.36,-0.19 37.13,-6.24 37.13,-24.98l0 -126.72c0,-96.49 -53.04,-141.25 -145.24,-155.5zm7565.17 93.76c180.16,-0.07 228.12,-2.91 228.12,-113.08l0 -24.85c0,-110.18 -47.96,-113 -228.12,-113.08 -76.32,0 -152.63,0 -228.95,0 -19.04,0 -24.98,17.3 -24.98,38.1l0 171.02c0,20.8 5.94,41.89 24.98,41.89l228.95 0zm142.86 69.15l-352.98 0c-42.18,0 -43.75,22.68 -43.81,56.18 0,14.77 0,29.53 0,44.3 0,42.18 -18.89,43.75 -52.4,43.81 -18.64,0 -37.28,0 -55.92,0 -33.51,-0.06 -52.4,-1.63 -52.4,-43.81l0 -464.8c0,-19.04 17.3,-24.99 38.1,-24.99 173.14,0 346.28,0 519.41,0 147.56,0 245.98,31.61 245.98,192.14 0,163.59 -91.8,197.17 -245.98,197.17zm328.95 -389.31c250.18,0 500.37,0 750.56,0 15.92,0 29.15,4.55 29.15,19.12 0,10.3 0,20.61 0,30.92 0,14.56 -13.23,19.11 -29.15,19.11l-248.43 0c-42.18,0 -43.75,30.27 -43.81,63.77 0,125.23 0,250.46 0,375.69 0,19.04 -17.3,24.99 -38.1,24.99 -23.41,0 -46.81,0 -70.22,0 -33.5,-0.06 -52.39,-1.63 -52.39,-43.81 0,-118.96 0,-237.91 0,-356.87 -0.06,-33.5 -1.64,-63.77 -43.81,-63.77l-253.8 0c-15.92,0 -29.16,-4.55 -29.16,-19.11 0,-10.31 0,-20.62 0,-30.92 0,-14.57 13.24,-19.12 29.16,-19.12zm-1762.95 0c245.58,0 491.16,0 736.74,0 15.18,0 27.91,4.14 29.08,17.13l-0.01 34.91c-1.18,12.98 -13.9,17.11 -29.07,17.11l-588.71 0c-19.04,0 -24.98,17.3 -24.98,38.1 0,22.7 0,41.6 0,64.3 0,20.8 5.94,41.89 24.98,41.89l427.93 0c15.93,0 29.16,4.55 29.16,19.12 0,10.3 0,20.61 0,30.91 0,14.57 -13.23,19.12 -29.16,19.12 -136.37,0 -272.73,0 -409.1,0 -44.25,0 -43.81,24.59 -43.81,61.24 0,21.06 0,42.11 0,63.17 0,36.65 -0.44,57.45 43.81,57.45l569.88 0c15.18,0 27.92,4.13 29.08,17.14l0 34.83c-1.14,13.04 -13.88,17.18 -29.08,17.18 -240.67,0 -481.34,0 -722.01,0 -33.51,-0.06 -52.4,-1.63 -52.4,-43.81l0 -464.8c0,-18.91 17.06,-24.9 37.67,-24.99zm-3244.83 533.6c134.32,0 245.98,-38.39 245.98,-161.28l0 -211.04c0,-122.89 -111.66,-161.28 -245.98,-161.28l-528.35 0c-15.92,0 -29.16,4.55 -29.16,19.12 0,10.3 0,20.61 0,30.92 0,14.56 13.24,19.11 29.16,19.11l385.49 0c178.83,0.08 227.4,-0.91 228.11,106.88 -0.84,18.75 -7.24,37.41 -24.89,37.41l-428.01 0c-15.92,0 -29.16,4.55 -29.16,19.12l0 30.91c0,14.57 13.24,19.12 29.16,19.12 136.4,0 272.79,0 409.19,0 38.37,0 43.13,19.44 43.72,47.49l0 21.29c0,110.17 -47.96,113 -228.12,113.08l-385.49 0c-15.92,0 -29.16,4.55 -29.16,19.11 0,10.31 0,20.62 0,30.92 0,14.57 13.24,19.12 29.16,19.12l528.35 0z"></path> </g> </svg> 