<?xml version="1.0" encoding="UTF-8"?> <!-- Creator: CorelDRAW 2017 --> <svg xmlns="http://www.w3.org/2000/svg" xmlns:xlink="http://www.w3.org/1999/xlink" xml:space="preserve" width="1185px" height="370px" style="shape-rendering:geometricPrecision; text-rendering:geometricPrecision; image-rendering:optimizeQuality; fill-rule:evenodd; clip-rule:evenodd" viewBox="0 0 1185 370"> <defs> <style type="text/css"> <![CDATA[ .str1 {stroke:#2B2A29;stroke-width:2.835;stroke-miterlimit:22.9256} .str2 {stroke:#2B2A29;stroke-width:2.835;stroke-miterlimit:22.9256} .str0 {stroke:#2B2A29;stroke-width:4.252;stroke-miterlimit:22.9256} .str3 {stroke:#2B2A29;stroke-width:4.252;stroke-miterlimit:22.9256} .fil0 {fill:none} ]]> </style> </defs> <g id="Слой_x0020_1"> <metadata id="CorelCorpID_0Corel-Layer"></metadata> <path class="fil0 str0" d="M75.822 250.906c17.169,17.17 17.169,17.17 17.169,17.17m-0.07 -17.169c-17.17,17.169 -17.17,17.169 -17.17,17.169"></path> <path class="fil0 str0" d="M367.133 140.872c17.169,17.17 17.169,17.17 17.169,17.17m-0.071 -17.169c-17.169,17.169 -17.169,17.169 -17.169,17.169"></path> <path class="fil0 str0" d="M841.871 188.019c17.17,17.169 17.17,17.169 17.17,17.169m-0.071 -17.168c-17.169,17.168 -17.169,17.168 -17.169,17.168"></path> <path class="fil0 str0" d="M1041.372 198.177c8.812,22.627 8.812,22.627 8.812,22.627m6.842 -15.747c-22.626,8.811 -22.626,8.811 -22.626,8.811"></path> <path class="fil0 str0" d="M157.512 201.744c37.359,0.094 37.359,0.094 37.359,0.094m-24.187 -0.061l1.969 27.295 6.609 0 2.39 -27.268"></path> <path class="fil0 str0" d="M760.884 144.839c37.36,0.094 37.36,0.094 37.36,0.094m-24.187 -0.06l1.968 27.295 6.61 0 2.39 -27.268"></path> <circle class="fil0 str1" cx="581.161" cy="77.624" r="4.125"></circle> <path class="fil0 str0" d="M382.643 207.558c6.237,1.521 10.06,7.811 8.538,14.049 -1.521,6.236 -7.812,10.059 -14.049,8.538 -6.237,-1.522 -10.06,-7.812 -8.538,-14.05 1.522,-6.237 7.812,-10.06 14.049,-8.537zm4.822 46.255l-44.167 -39.91c-2.204,-1.992 -1.413,-4.685 1.409,-5.596l56.646 -18.295c2.746,-0.887 4.947,0.772 4.314,3.72 -4.16,19.402 -8.319,38.804 -12.479,58.205 -0.577,2.69 -3.611,3.785 -5.723,1.876z"></path> <path class="fil0 str0" d="M961.412 209.596c15.637,0 28.313,12.676 28.313,28.312 0,15.637 -12.676,28.313 -28.313,28.313 -15.636,0 -28.312,-12.676 -28.312,-28.313 0,-15.636 12.676,-28.312 28.312,-28.312zm-20.744 28.373l6.562 0m27.751 -0.281l7.312 0.093m-20.438 -20.999l-0.093 7.031m-0.188 28.219l0 6.75m-32.812 -98.438l64.594 0 0 37.594 -64.594 0 0 -37.594zm-1.24 -12.188l66.979 0c5.145,0 9.354,4.21 9.354,9.355l0 108.698c0,5.145 -4.209,9.354 -9.354,9.354l-66.979 0c-5.145,0 -9.354,-4.209 -9.354,-9.354l0 -108.698c0,-5.145 4.209,-9.355 9.354,-9.355z"></path> <circle class="fil0 str0" cx="860.466" cy="270.001" r="8.812"></circle> <line class="fil0 str0" x1="449.453" y1="209.174" x2="713.828" y2="209.174"></line> <line class="fil0 str0" x1="592.429" y1="160.344" x2="619.617" y2="133.157"></line> <line class="fil0 str0" x1="619.054" y1="150.032" x2="646.242" y2="122.657"></line> <line class="fil0 str0" x1="506.929" y1="278.282" x2="658.429" y2="278.282"></line> <line class="fil0 str0" x1="544.992" y1="233.908" x2="544.992" y2="278.282"></line> <line class="fil0 str0" x1="618.493" y1="233.666" x2="618.493" y2="278.282"></line> <line class="fil0 str0" x1="320.741" y1="289.157" x2="320.741" y2="314.657"></line> <line class="fil0 str0" x1="320.741" y1="297.032" x2="226.429" y2="297.032"></line> <line class="fil0 str0" x1="320.741" y1="306.782" x2="226.241" y2="306.782"></line> <polyline class="fil0 str0" points="226.429,297.032 200.741,291.22 177.491,297.407 177.491,305.845 200.554,312.782 226.241,306.782 "></polyline> <line class="fil0 str0" x1="318.679" y1="289.157" x2="421.616" y2="289.157"></line> <line class="fil0 str0" x1="318.773" y1="314.657" x2="421.616" y2="314.657"></line> <line class="fil0 str0" x1="331.195" y1="289.157" x2="331.195" y2="314.657"></line> <path class="fil0 str0" d="M421.523 289.157c2.297,0.094 4.594,0.188 6.547,1.375 1.953,1.188 3.563,3.469 4.555,5.578 0.992,2.11 1.367,4.047 1.344,5.875 -0.024,1.828 -0.446,3.547 -1.003,5.066 -0.557,1.518 -1.25,2.835 -2.211,4.062 -0.961,1.227 -2.19,2.362 -3.773,2.937 -1.584,0.576 -3.522,0.591 -4.475,0.599 -0.953,0.008 -0.922,0.008 -0.891,0.008"></path> <path class="fil0 str0" d="M1063.987 266.675c5.639,-3.069 12.698,-0.985 15.767,4.655 3.068,5.639 0.984,12.699 -4.655,15.767 -5.639,3.068 -12.699,0.984 -15.768,-4.655 -3.068,-5.639 -0.984,-12.699 4.656,-15.767zm34.676 30.989l-59.527 0.168c-2.971,0.009 -4.196,-2.517 -2.721,-5.089l29.617 -51.636c1.436,-2.503 4.181,-2.755 5.696,-0.148 9.969,17.156 19.94,34.312 29.909,51.468 1.382,2.379 -0.127,5.229 -2.974,5.237z"></path> <rect class="fil0 str0" x="448.669" y="62.656" width="264.75" height="171.75" rx="10.205" ry="10.205"></rect> <rect class="fil0 str0" x="725.419" y="229.531" width="151.5" height="84.75" rx="9.354" ry="9.354"></rect> <line class="fil0 str0" x1="748.943" y1="229.531" x2="748.943" y2="314.281"></line> <line class="fil0 str1" x1="737.606" y1="255.781" x2="737.606" y2="285.406"></line> <line class="fil0 str0" x1="844.106" y1="229.25" x2="844.106" y2="314"></line> <g id="_2214996212944"> <path class="fil0 str2" d="M271.214 223.486c2.205,0 3.993,1.788 3.993,3.994 0,2.205 -1.788,3.993 -3.993,3.993 -2.206,0 -3.994,-1.788 -3.994,-3.993 0,-2.206 1.788,-3.994 3.994,-3.994z"></path> <path class="fil0 str3" d="M280.359 149.401l0 0c7.743,-3.642 13.104,-11.512 13.104,-20.636 0,-8.542 -4.699,-15.985 -11.652,-19.889l0 17.533 -12.176 7.029 -12.154 -7.018 0 -16.251c-5.815,4.131 -9.734,9.216 -9.608,18.596 0.125,9.38 6.097,17.397 13.834,20.965l-0.002 78.519c0,4.953 5.247,9.119 9.119,9.119 4.592,0 9.535,-4.042 9.535,-9.535l0 -39.266 0 -39.166 0 0z"></path> </g> </g> </svg> 